STARTFONT 2.1
FONT zoec666
SIZE 15 96 96
FONTBOUNDINGBOX 15 15 0 0
STARTPROPERTIES 9
FONTNAME_REGISTRY ""
FOUNDRY "Zoe"
family_name "zoecons666"
weight_name "medium"
SLANT "R"
SETWIDTH_NAME "Normal"
ADD_STYLE_NAME ""
POINT_SIZE 150
PIXEL_SIZE 20
RESOLUTION_X 96
RESOLUTION_Y 96
FONT_ASCENT 15
FONT_DESCENT 5
AVERAGE_WIDTH 130
SPACING "M"
_GBDFED_INFO "Edited with gbdfed 1.6."
CHARSET_REGISTRY "ISO10646"
CHARSET_ENCODING "1"
ENDPROPERTIES
CHARS 5
STARTCHAR char1024
ENCODING 1024
SWIDTH 750 0
DWIDTH 15 0
BBX 15 14 0 0
BITMAP
0100
0100
0280
0280
0440
0440
FFFE
C826
3018
1C70
2388
26C8
5834
600C
ENDCHAR
STARTCHAR char1025
ENCODING 1025
SWIDTH 750 0
DWIDTH 15 0
BBX 15 15 0 0
BITMAP
01C0
0080
0080
0300
0400
0400
7FFC
EAAA
FFFE
EAAA
FFFE
EA2A
FFFE
FFFE
7FFC
ENDCHAR
STARTCHAR char1026
ENCODING 1026
SWIDTH 750 0
DWIDTH 15 0
BBX 13 15 0 0
BITMAP
7FF0
F078
CF98
D058
A528
A528
B068
9848
9FC8
CD58
C018
F078
FFF0
9308
7FF8
ENDCHAR
STARTCHAR char1027
ENCODING 1027
SWIDTH 750 0
DWIDTH 15 0
BBX 14 14 1 1
BITMAP
00E0
0110
0788
0844
1014
218C
4288
8308
8408
8810
9020
A040
C080
FF00
ENDCHAR
STARTCHAR char1028
ENCODING 1028
SWIDTH 750 0
DWIDTH 15 0
BBX 13 11 1 1
BITMAP
FFF8
FFF8
8008
A008
9008
8808
9008
A008
8FE8
8008
FFF8
ENDCHAR
STARTCHAR char1029
ENCODING 1029
SWIDTH 750 0
DWIDTH 15 0
BBX 15 13 0 2
BITMAP
0C60
3018
67CC
7FFC
7FFC
7FFC
F39E
F39E
FFFE
FFFE
DFF6
600C
3C78
ENDCHAR
STARTCHAR char1030
ENCODING 1030
SWIDTH 750 0
DWIDTH 15 0
BBX 15 14 0 1
BITMAP
600C
47E4
4FF6
C816
D818
1818
1818
1C38
366C
324C
324C
324C
366C
1C38
ENDCHAR
ENDFONT
